<svg xmlns="http://www.w3.org/2000/svg" xml:space="preserve" overflow="hidden" viewBox="0 0 4109 843">
  <g fill-rule="evenodd">
    <path fill="#EA6312" d="M757.465 422.143 1165.61 6.438l415.71 408.145-408.15 415.707Z"/>
    <path fill="#FFF" stroke="#FFF" stroke-linecap="round" stroke-linejoin="round" stroke-miterlimit="10" stroke-width="6.875" d="M529.158 425.067 931.12 10.396l414.67 401.965L943.83 827.03Zm102.08-1.588L942.24 724.95l301.47-311.001-311-301.474Z"/>
    <path fill="#FFF" stroke="#FFF" stroke-linecap="round" stroke-linejoin="round" stroke-miterlimit="10" stroke-width="6.875" d="m1179.84 414 110.44-112.485 112.49 110.439-110.44 112.486Z"/>
    <path fill="#FFF" d="M1665.14 836c-.38-151-.76-294.268-1.14-445.272 13.45-171.553 123.08-271.713 161.43-300.48 162.1-127.589 346.52-84.009 390.98-67.952 215.62 85.537 264.66 257.949 275.92 315.962 28.62 179.868-56.96 323.612-125.37 387.352-38.26 35.94-197.59 164.77-436.77 82l47.22-115.83c51.91 15.77 162.2 55.62 307.69-61.07 77.38-77.796 101.52-191.718 87.87-282.417-20.41-85.537-66.59-161.613-192.62-217.905-106.19-34.789-208.09-10.227-286.8 50.462-41.69 37.846-106.57 115.261-110.48 216.759.38 54.285 1.62 104.269 2 158.555L1665.14 836Z"/>
    <path fill="#FFF" stroke="#FFF" stroke-linecap="round" stroke-linejoin="round" stroke-miterlimit="10" stroke-width="6.875" d="M3485.34962 839.5c.383338-151.005.76704-294.268 1.15038-445.273-13.5173-171.552-123.666-271.712-162.204-300.4794-162.875-127.589-348.182-84.0087-392.855-67.9522-216.656 85.5376-265.931 257.9496-277.242 315.9626-28.76 179.868 57.231 323.608 125.966 387.355 38.442 35.935 198.537 164.767 438.871 82.002l-47.453-115.835c-52.151 15.77-162.971 55.623-309.166-61.07-77.746-77.796-102-191.718-88.291-282.417 20.515-85.537 66.913-161.613 193.552-217.905 106.698-34.7886 209.081-10.227 288.17 50.462 41.894 37.846 107.082 115.26 111.012 216.759-.383 54.285-1.629 104.269-2.013 158.554L3485.34962 839.5Zm-3049.00162-3c.383876-150.916.76812-294.096 1.152-445.012-13.5363-171.452-127.284-271.554-162.433-300.3043C200.151 31.755 82.338-.83967 3.5 3.966061L8.666 114.861c68.758-2.771 138.604 20.481 197.857 66.872 41.952 37.824 107.232 115.193 111.169 216.632-.384 54.253-1.633 104.209-2.016 158.462L436.348 836.5Zm3217.352 1c-.4-150.92-.8-294.096-1.2-445.012 14.13-171.452 132.86-271.554 169.54-300.304C3900.24 32.755 4023.21.16 4105.5 4.966l-5.39 110.895c-71.77-2.771-144.67 20.481-206.52 66.872-43.79 37.824-111.93 115.193-116.04 216.632.4 54.253 1.71 104.209 2.11 158.462L3653.7 837.5Z"/>
  </g>
</svg>