<svg width="4102" height="836" xmlns="http://www.w3.org/2000/svg" xmlns:xlink="http://www.w3.org/1999/xlink" xml:space="preserve" overflow="hidden"><defs><clipPath id="clip0"><rect x="149" y="1022" width="4102" height="836"/></clipPath></defs><g clip-path="url(#clip0)" transform="translate(-149 -1022)"><path d="M903.24 1442.1 1311.39 1026.39 1727.09 1434.54 1318.95 1850.24Z" fill="#2D2C3C" fill-rule="evenodd" fill-opacity="0.898039"/><path d="M674.933 1445.02 1076.9 1030.35 1491.57 1432.31 1089.6 1846.98ZM777.012 1443.43 1088.02 1744.9 1389.49 1433.9 1078.49 1132.43Z" fill="#636683" fill-rule="evenodd"/><path d="M1325.62 1433.95 1436.06 1321.47 1548.54 1431.91 1438.1 1544.39Z" fill="#ACA7CD" fill-rule="evenodd"/><path d="M1810.15 1856C1809.76 1705 1809.38 1561.73 1809 1410.73 1822.47 1239.18 1932.22 1139.01 1970.62 1110.25 2132.92 982.659 2317.56 1026.24 2362.07 1042.3 2577.95 1127.83 2627.05 1300.25 2638.32 1358.26 2666.98 1538.13 2581.3 1681.87 2512.81 1745.61 2474.5 1781.55 2314.98 1910.38 2075.51 1827.61L2122.79 1711.78C2174.75 1727.55 2285.18 1767.4 2430.85 1650.71 2508.32 1572.91 2532.48 1458.99 2518.82 1368.29 2498.38 1282.76 2452.15 1206.68 2325.97 1150.39 2219.65 1115.6 2117.63 1140.16 2038.83 1200.85 1997.08 1238.7 1932.13 1316.11 1928.21 1417.61 1928.59 1471.89 1929.84 1521.88 1930.22 1576.16L1810.15 1856Z" fill="#636683" fill-rule="evenodd" fill-opacity="0.8"/><path d="M1.15038 833C0.767042 682.176 0.38334 539.085 0 388.261 13.5173 216.915 123.666 116.874 162.204 88.1417 325.079-39.2942 510.386 4.23382 555.059 20.2711 771.715 105.706 820.99 277.912 832.301 335.855 861.061 515.507 775.07 659.075 706.335 722.746 667.893 758.638 507.798 887.315 267.464 804.649L314.917 688.953C367.068 704.704 477.888 744.51 624.083 627.956 701.829 550.253 726.083 436.468 712.374 345.878 691.859 260.443 645.461 184.459 518.822 128.234 412.124 93.4871 309.741 118.019 230.652 178.635 188.758 216.436 123.57 293.758 119.64 395.134 120.023 449.354 121.269 499.279 121.653 553.499L1.15038 833Z" fill="#636683" fill-rule="evenodd" fill-opacity="0.8" transform="matrix(-1 0 0 1 3632 1025)"/><path d="M1.14935 833C0.766354 682.084 0.382996 538.904 0 387.988 13.5051 216.536 126.991 116.434 162.058 87.6837 236.802 28.255 354.344-4.33967 433 0.466061L427.846 111.361C359.246 108.59 289.561 131.842 230.445 178.233 188.589 216.057 123.459 293.426 119.532 394.865 119.915 449.118 121.161 499.074 121.544 553.327L1.14935 833Z" fill="#636683" fill-rule="evenodd" fill-opacity="0.8" transform="matrix(-1 0 0 1 582 1023)"/><path d="M3799.2 1857C3798.8 1706.08 3798.4 1562.9 3798 1411.99 3812.13 1240.54 3930.86 1140.43 3967.54 1111.68 4045.74 1052.26 4168.71 1019.66 4251 1024.47L4245.61 1135.36C4173.84 1132.59 4100.94 1155.84 4039.09 1202.23 3995.3 1240.06 3927.16 1317.43 3923.05 1418.86 3923.45 1473.12 3924.76 1523.07 3925.16 1577.33L3799.2 1857Z" fill="#636683" fill-rule="evenodd" fill-opacity="0.8"/></g></svg>