<svg xmlns="http://www.w3.org/2000/svg" xml:space="preserve" overflow="hidden" viewBox="0 0 4109 843">
  <g fill-rule="evenodd">
    <path fill="#EA6312" d="M757.309 423 1165.45 7.3l415.71 408.14-408.15 415.71Z"/>
    <path fill="#3F6374" stroke="#3F6374" stroke-linecap="round" stroke-linejoin="round" stroke-miterlimit="10" stroke-width="6.875" d="M529.002 425.92 930.97 11.25l414.67 401.97-401.97 414.67Zm102.079-1.58L942.08 725.81l301.48-311-311.01-301.48Z"/>
    <path fill="#3F6374" stroke="#3F6374" stroke-linecap="round" stroke-linejoin="round" stroke-miterlimit="10" stroke-width="6.875" d="m1179.69 414.86 110.44-112.49 112.48 110.44-110.44 112.49Zm485.95 422.64c-.38-151-.76-294.27-1.14-445.27 13.45-171.55 123.08-271.72 161.43-300.48 162.1-127.59 346.52-84.01 390.98-67.95 215.62 85.53 264.66 257.95 275.92 315.96 28.62 179.87-56.96 323.61-125.37 387.35-38.26 35.94-197.59 164.77-436.77 82l47.22-115.83c51.91 15.77 162.2 55.62 307.69-61.07 77.38-77.8 101.52-191.72 87.87-282.42-20.41-85.53-66.59-161.61-192.62-217.9-106.19-34.79-208.09-10.23-286.8 50.46-41.69 37.85-106.57 115.26-110.48 216.76.38 54.28 1.62 104.27 2 158.55L1665.64 837.5Zm1819.70962 2c.383338-150.824.76704-293.915 1.15038-444.739-13.5173-171.346-123.666-271.387-162.204-300.1193-162.875-127.4359-348.182-83.90788-392.855-67.8706-216.656 85.4349-265.931 257.6409-277.242 315.5839-28.76 179.652 57.231 323.22 125.966 386.891 38.442 35.892 198.537 164.569 438.871 81.903l-47.453-115.696c-52.151 15.751-162.971 55.557-309.166-60.997-77.746-77.703-102-191.488-88.291-282.078 20.515-85.435 66.913-161.419 193.552-217.644 106.698-34.7469 209.081-10.215 288.17 50.401 41.894 37.801 107.082 115.123 111.012 216.499-.383 54.22-1.629 104.145-2.013 158.365L3485.34962 839.5Zm-3049.99897-2c.382996-150.916.766354-294.096 1.14935-445.012-13.5051-171.452-126.991-271.554-162.058-300.3043C199.698 32.755 82.156.16033 3.5 4.966061L8.654 115.861c68.6-2.771 138.285 20.481 197.401 66.872 41.856 37.824 106.986 115.193 110.913 216.632-.383 54.253-1.629 104.209-2.012 158.462L435.35065 837.5Zm3218.34935 1c-.4-150.92-.8-294.1-1.2-445.01 14.13-171.45 132.86-271.56 169.54-300.31 78.2-59.42 201.17-92.02 283.46-87.21l-5.39 110.89c-71.77-2.77-144.67 20.48-206.52 66.87-43.79 37.83-111.93 115.2-116.04 216.63.4 54.26 1.71 104.21 2.11 158.47L3653.7 838.5Z"/>
  </g>
</svg>