<?xml version="1.0" encoding="UTF-8"?>
<svg width="302px" height="226px" viewBox="0 0 302 226" version="1.1" xmlns="http://www.w3.org/2000/svg" xmlns:xlink="http://www.w3.org/1999/xlink">
    <!-- Generator: Sketch 62 (91390) - https://sketch.com -->
    <title>No data found</title>
    <desc>Created with Sketch.</desc>
    <g id="Page-1" stroke="none" stroke-width="1" fill="none" fill-rule="evenodd">
        <g id="No-data-found" transform="translate(0.000000, 1.000000)">
            <g id="Group-10" transform="translate(0.500000, 0.000000)">
                <g id="Group-7">
                    <g id="Group-4" stroke-linejoin="round" transform="translate(0.000000, 69.000000)" stroke="#EBEBEB" stroke-width="1.8">
                        <polyline id="XMLID_57_" points="2.89546165e-13 1.169812 27.36 1.169812 27.36 14.129812 2.89546165e-13 14.129812"></polyline>
                        <line x1="54" y1="14.129812" x2="27.36" y2="14.129812" id="XMLID_59_"></line>
                        <line x1="27.36" y1="1.169812" x2="37.44" y2="1.169812" id="XMLID_38_"></line>
                        <rect id="XMLID_42_" x="14.4" y="14.129812" width="26.64" height="12.96"></rect>
                        <polyline id="XMLID_52_" points="4.32 27.089812 27.36 27.089812 27.36 40.049812 18.5222687 40.049812"></polyline>
                        <rect id="XMLID_54_" x="27.36" y="27.089812" width="26.64" height="12.96"></rect>
                    </g>
                    <g id="Group-2" stroke-linejoin="round" transform="translate(247.000000, 139.000000)" stroke="#EBEBEB" stroke-width="1.8">
                        <polyline id="XMLID_81_" points="2.89546165e-13 1.169812 27.36 1.169812 27.36 14.129812 2.89546165e-13 14.129812"></polyline>
                        <rect id="XMLID_78_" x="13.68" y="14.129812" width="26.64" height="12.96"></rect>
                        <polyline id="XMLID_77_" points="4.32 27.089812 27.36 27.089812 27.36 40.049812 18.5222687 40.049812"></polyline>
                        <polyline id="XMLID_76_" points="44.614947 40.049812 27.36 40.049812 27.36 27.089812 49.68 27.089812"></polyline>
                        <line x1="54" y1="14.129812" x2="27.36" y2="14.129812" id="XMLID_80_"></line>
                        <line x1="27.36" y1="1.169812" x2="37.44" y2="1.169812" id="XMLID_79_"></line>
                    </g>
                    <g id="Group" stroke-linejoin="round" transform="translate(54.000000, 0.000000)" stroke="#EBEBEB" stroke-width="1.8">
                        <rect id="XMLID_25_" x="1.0658141e-13" y="-1.56319402e-13" width="41.76" height="33.84"></rect>
                        <polyline id="XMLID_62_" points="5.76 25.92 13.5247059 15.12 21.6 24.6649541"></polyline>
                        <polyline id="XMLID_64_" points="18.72 21.0708241 29.2590335 10.8 36.72 25.92"></polyline>
                        <path d="M15.84,18 C16.3783178,16.3288889 17.8586916,15.12 19.6082243,15.12 C21.0549533,15.12 22.3334579,15.9377778 23.04,17.1822222" id="XMLID_63_"></path>
                    </g>
                    <g id="Group-5" stroke-linejoin="round" transform="translate(255.000000, 27.000000)" stroke="#EBEBEB" stroke-width="1.8">
                        <path d="M35.7602015,43 L2.23979849,43 C0.995465995,43 0,41.8888889 0,40.5 L0,40.5 C0,39.1111111 0.995465995,38 2.23979849,38 L35.7602015,38 C37.004534,38 38,39.1111111 38,40.5 L38,40.5 C38,41.8888889 37.004534,43 35.7602015,43 Z" id="XMLID_24_"></path>
                        <polygon id="XMLID_23_" points="24.9366391 38 15.0440771 38 13 25 27 25"></polygon>
                        <rect id="XMLID_46_" x="11" y="21" width="18" height="4"></rect>
                        <path d="M22.2678152,21 C21.0848329,21 19.9018506,21 18.7188682,21 C17.7424383,17.4854369 16.897451,13.7961165 17.0101159,10.184466 C17.1415584,8.45631068 18.9441982,7 20.5027305,7 L20.5027305,7 C22.0612628,7 23.8639025,8.45631068 23.995345,10.184466 C24.070455,13.7961165 23.2254676,17.4854369 22.2678152,21 Z" id="XMLID_83_"></path>
                        <path d="M24,8.48785259 L26.8361501,4.67231785 C27.3774001,3.93382726 28.6114502,3.77557928 29.4125002,4.33823878 L29.4125002,4.33823878 C30.2135502,4.90089828 30.1919002,5.90313551 29.3692002,6.4482119 L24.0433,10" id="XMLID_71_"></path>
                        <path d="M26.2716232,5 L25.0510999,1.2611282 C24.8542413,0.682952144 25.2479585,0.0855035569 25.8582201,0.00841341666 L25.8582201,0.00841341666 C26.4684818,-0.0686767236 27,0.393864118 27,0.991312705 L26.9015707,4.01710071" id="XMLID_75_"></path>
                    </g>
                    <polyline id="Fill-1" fill="#F1F0EC" fill-rule="nonzero" points="120.430896 158.602624 71.958336 191.024224 24.21888 119.650048 72.691872 87.22888 120.430896 158.602624"></polyline>
                    <polyline id="Fill-2" fill="#D4D5CF" fill-rule="nonzero" points="95.389152 155.218336 94.839216 158.622928 70.742688 155.151376 71.293056 151.747216 95.389152 155.218336"></polyline>
                    <polyline id="Fill-3" fill="#D4D5CF" fill-rule="nonzero" points="83.25384 143.07352 86.711568 143.572048 82.878 167.296192 79.420272 166.798096 83.25384 143.07352"></polyline>
                    <path d="M61.0593406,112.919488 C61.093536,112.971328 56.2361313,116.28088 50.211024,120.311008 C44.183328,124.342432 39.270624,127.567744 39.2361313,127.515904 C39.201936,127.464496 44.05848,124.155376 50.085744,120.123952 C56.110848,116.093824 61.024848,112.86808 61.0593406,112.919488" id="Fill-4" fill="#D4D5CF" fill-rule="nonzero"></path>
                    <path d="M78.8852443,108.444832 C78.919584,108.496672 70.841616,113.960176 60.845136,120.64624 C50.844768,127.335328 42.7128,132.713728 42.6780197,132.661888 C42.64368,132.61048 50.71992,127.14784 60.719856,120.459616 C70.716768,113.77312 78.850464,108.392992 78.8852443,108.444832" id="Fill-5" fill="#D4D5CF" fill-rule="nonzero"></path>
                    <path d="M82.4583218,113.786944 C82.493088,113.838784 74.41512,119.302288 64.418208,125.988352 C54.418272,132.67744 46.285872,138.05584 46.2510917,138.004432 C46.216752,137.952592 54.292992,132.490384 64.29336,125.801728 C74.28984,119.115232 82.423536,113.735536 82.4583218,113.786944" id="Fill-6" fill="#D4D5CF" fill-rule="nonzero"></path>
                    <path d="M86.0318203,119.129056 C86.06616,119.180896 77.988192,124.6444 67.991712,131.330896 C57.991344,138.019552 49.859376,143.397952 49.8241691,143.346544 C49.790256,143.295136 57.866064,137.832496 67.866432,131.14384 C77.862912,124.457344 85.99704,119.077648 86.0318203,119.129056" id="Fill-7" fill="#D4D5CF" fill-rule="nonzero"></path>
                    <path d="M89.6048923,124.4716 C89.639232,124.52344 81.561264,129.986944 71.564784,136.673008 C61.564416,143.361664 53.432448,148.740496 53.3976677,148.688656 C53.363328,148.637248 61.439568,143.17504 71.439504,136.486384 C81.436416,129.799888 89.570112,124.420192 89.6048923,124.4716" id="Fill-8" fill="#D4D5CF" fill-rule="nonzero"></path>
                    <polyline id="Fill-9" fill="#F1F0EC" fill-rule="nonzero" points="274.868736 195.005536 234.159648 222.233632 194.067456 162.291904 234.776112 135.063376 274.868736 195.005536"></polyline>
                    <polyline id="Fill-10" fill="#D4D5CF" fill-rule="nonzero" points="253.83768 192.162976 253.375872 195.022384 233.139264 192.106816 233.601504 189.24784 253.83768 192.162976"></polyline>
                    <polyline id="Fill-11" fill="#D4D5CF" fill-rule="nonzero" points="243.6468 181.963888 246.550272 182.381632 243.330576 202.306336 240.426672 201.88816 243.6468 181.963888"></polyline>
                    <path d="M225.006432,156.639616 C225.040992,156.691024 220.966368,159.476992 215.90592,162.861712 C210.843744,166.247728 206.713392,168.949456 206.678832,168.897616 C206.644272,168.845776 210.718896,166.06024 215.781072,162.674656 C220.840656,159.289936 224.971872,156.587344 225.006432,156.639616" id="Fill-12" fill="#D4D5CF" fill-rule="nonzero"></path>
                    <path d="M239.977223,152.881216 C240.01152,152.932624 233.232144,157.527808 224.836656,163.143376 C216.438144,168.760672 209.604336,173.271616 209.569513,173.219344 C209.535216,173.167936 216.313296,168.574048 224.711376,162.956752 C233.107296,157.341184 239.9424,152.829376 239.977223,152.881216" id="Fill-13" fill="#D4D5CF" fill-rule="nonzero"></path>
                    <path d="M242.978759,157.367968 C243.013056,157.419376 236.232816,162.01456 227.83776,167.630128 C219.439248,173.247424 212.605008,177.757504 212.570193,177.706096 C212.53632,177.654688 219.313968,173.060368 227.712912,167.443072 C236.107968,161.827504 242.943936,157.316128 242.978759,157.367968" id="Fill-14" fill="#D4D5CF" fill-rule="nonzero"></path>
                    <path d="M245.979431,161.85472 C246.013728,161.906128 239.234352,166.501312 230.838432,172.11688 C222.440352,177.734176 215.606112,182.244256 215.571289,182.192848 C215.536992,182.14144 222.315072,177.54712 230.713584,171.929824 C239.109072,166.314256 245.944608,161.80288 245.979431,161.85472" id="Fill-15" fill="#D4D5CF" fill-rule="nonzero"></path>
                    <path d="M248.980103,166.34104 C249.0144,166.39288 242.235024,170.987632 233.839536,176.6032 C225.441024,182.220496 218.607216,186.731008 218.572387,186.6796 C218.537664,186.62776 225.315744,182.033872 233.714256,176.416144 C242.109744,170.801008 248.94528,166.2892 248.980103,166.34104" id="Fill-16" fill="#D4D5CF" fill-rule="nonzero"></path>
                    <polyline id="Fill-17" fill="#F1F0EC" fill-rule="nonzero" points="135.39408 155.248144 90.976704 131.492896 125.955312 66.089392 170.37312 89.84464 135.39408 155.248144"></polyline>
                    <polyline id="Fill-18" fill="#D4D5CF" fill-rule="nonzero" points="127.790448 134.788624 124.97208 135.753712 117.819456 115.979344 120.637392 115.014256 127.790448 134.788624"></polyline>
                    <polyline id="Fill-19" fill="#D4D5CF" fill-rule="nonzero" points="132.11088 120.602608 133.137312 123.439984 113.499024 130.165792 112.472592 127.327984 132.11088 120.602608"></polyline>
                    <path d="M146.064912,91.426624 C146.030352,91.491856 141.525024,89.149984 136.003632,86.197264 C130.480512,83.24368 126.033072,80.797264 126.067632,80.732032 C126.102192,80.6668 130.606656,83.00824 136.129776,85.961824 C141.650736,88.914976 146.099904,91.361824 146.064912,91.426624" id="Fill-20" fill="#D4D5CF" fill-rule="nonzero"></path>
                    <path d="M156.723889,103.19128 C156.688656,103.256512 149.232768,99.336976 140.07264,94.437664 C130.908624,89.536624 123.511056,85.512544 123.545375,85.447744 C123.580176,85.382512 131.034768,89.301616 140.198352,94.202224 C149.358912,99.101536 156.758208,103.12648 156.723889,103.19128" id="Fill-21" fill="#D4D5CF" fill-rule="nonzero"></path>
                    <path d="M154.105543,108.086704 C154.070736,108.151936 146.614848,104.2324 137.454288,99.333088 C128.290704,94.43248 120.892704,90.407968 120.927449,90.342736 C120.962256,90.277936 128.416848,94.196608 137.580432,99.097648 C146.74056,103.99696 154.140288,108.021904 154.105543,108.086704" id="Fill-22" fill="#D4D5CF" fill-rule="nonzero"></path>
                    <path d="M151.487197,112.982128 C151.452384,113.04736 143.996928,109.127824 134.836368,104.228512 C125.672784,99.327472 118.274784,95.303392 118.309103,95.23816 C118.344336,95.17336 125.798496,99.092032 134.96208,103.993072 C144.12264,108.891952 151.522368,112.917328 151.487197,112.982128" id="Fill-23" fill="#D4D5CF" fill-rule="nonzero"></path>
                    <path d="M28.803264,197.356912 C30.264288,197.407888 31.635024,198.20104 32.598384,199.300048 C33.561744,200.399056 34.15272,201.781456 34.530288,203.1928 C35.261232,205.924768 34.811952,209.148352 34.033056,211.866496 C31.075584,210.809824 29.25168,207.655792 28.427424,205.997776 C27.12408,203.377264 26.359872,197.849392 28.803264,197.356912" id="Fill-31" fill="#7BCCC4" fill-rule="nonzero"></path>
                    <path d="M38.288256,215.177344 C37.355136,213.838144 37.333104,211.974928 38.07096,210.518224 C38.808384,209.06152 40.225776,208.011328 41.78616,207.531808 C42.508032,207.310624 43.345248,207.217312 43.973376,207.636352 C44.560032,208.028608 44.813616,208.797568 44.737584,209.499568 C44.662416,210.201136 44.306448,210.843088 43.887408,211.410736 C42.44928,213.35776 40.700544,214.978192 38.288256,215.177344" id="Fill-32" fill="#7BCCC4" fill-rule="nonzero"></path>
                    <path d="M38.613984,224.30597 C38.599728,224.308096 38.5548,224.105488 38.481792,223.73872 C38.402736,223.333504 38.300352,222.80992 38.177232,222.18136 C37.943952,220.8724 37.573728,219.010912 37.853664,216.952864 C38.123232,214.90432 38.938848,213.15256 39.793776,212.106688 C40.214544,211.577488 40.617168,211.202944 40.915248,210.972688 C41.059536,210.851728 41.186976,210.776992 41.267328,210.719968 C41.350272,210.665536 41.395632,210.640048 41.39952,210.645664 C41.43192,210.681952 40.70832,211.127776 39.908688,212.194816 C39.098688,213.244144 38.321952,214.965664 38.057136,216.98008 C37.781088,218.996224 38.1228,220.840864 38.320224,222.157168 C38.426064,222.817696 38.511168,223.353376 38.560416,223.72576 C38.609664,224.09728 38.627376,224.303776 38.613984,224.30597" id="Fill-33" fill="#132529" fill-rule="nonzero"></path>
                    <path d="M29.75712,201.514745 C29.7636,201.511888 29.80464,201.588784 29.876352,201.738688 C29.954976,201.908896 30.056064,202.126624 30.180912,202.396624 C30.442272,202.97032 30.809904,203.804512 31.255296,204.839152 C32.14608,206.908 33.337104,209.783392 34.5804,212.987968 C35.822832,216.194272 36.882096,219.121072 37.619088,221.249536 C37.988016,222.313984 38.278752,223.177552 38.472288,223.777168 C38.562144,224.060992 38.63472,224.289952 38.69088,224.4688 C38.738832,224.627344 38.760864,224.712448 38.753952,224.714692 C38.747472,224.716768 38.71248,224.636848 38.652,224.482624 C38.586336,224.3068 38.501664,224.081728 38.39712,223.803088 C38.17248,223.187488 37.862304,222.338176 37.482576,221.298352 C36.711024,219.182848 35.631024,216.265984 34.389024,213.062272 C33.147024,209.859856 31.978032,206.977552 31.121808,204.895312 C30.700608,203.871472 30.356736,203.034688 30.107904,202.428592 C29.997312,202.152112 29.907888,201.928768 29.838336,201.755104 C29.779152,201.600448 29.751072,201.517072 29.75712,201.514745" id="Fill-34" fill="#132529" fill-rule="nonzero"></path>
                    <path d="M35.103552,218.266576 C33.359136,215.299168 30.103152,213.27568 26.670048,213.026848 C25.79568,212.962912 24.744192,213.110224 24.354096,213.8956 C23.963568,214.68184 24.485856,215.612368 25.081584,216.257344 C27.559536,218.941792 31.751232,219.877504 35.135952,218.502016" id="Fill-35" fill="#7BCCC4" fill-rule="nonzero"></path>
                    <path d="M238.077456,118.4992 C237.940944,118.4992 237.852384,118.495744 237.81912,118.487104 C237.81912,118.484512 237.81912,118.48192 237.819552,118.478896 L238.405776,118.493152 L238.404912,118.49488 C238.276176,118.497472 238.166448,118.4992 238.077456,118.4992" id="Fill-83" fill="#051317" fill-rule="nonzero"></path>
                    <path d="M226.627296,130.479424 C226.56768,130.497136 226.395312,130.10056 226.241952,129.593392 C226.088592,129.085792 226.012128,128.65984 226.071744,128.641696 C226.13136,128.623984 226.303728,129.02056 226.457088,129.52816 C226.61088,130.035328 226.686912,130.46128 226.627296,130.479424" id="Fill-86" fill="#132529" fill-rule="nonzero"></path>
                    <path d="M245.352105,154.762144 C245.355792,154.768624 245.249952,154.848112 245.048208,154.991968 C244.996368,155.028688 244.939776,155.068864 244.878432,155.111632 C244.820112,155.161312 244.76352,155.223088 244.698288,155.285728 C244.567392,155.41144 244.415328,155.553568 244.283568,155.750128 C243.682656,156.486256 243.244176,157.800832 242.827728,159.441568 C242.597904,160.25632 242.365488,161.170432 241.885104,162.065104 C241.7568,162.283696 241.641456,162.515248 241.472112,162.71872 C241.391328,162.821968 241.317888,162.933424 241.229328,163.032784 L240.94248,163.3192 C240.55368,163.70152 240.061632,163.989664 239.5428,164.217328 C238.500816,164.673952 237.324912,164.890384 236.250096,165.42952 C235.1688,165.956128 234.358368,166.976944 233.861568,168.152416 C233.337552,169.323136 233.0196,170.552176 232.582416,171.699568 C232.153008,172.837888 231.568512,173.945968 230.639712,174.645808 C229.718256,175.371136 228.579936,175.537024 227.59368,175.600528 C226.591872,175.658848 225.663936,175.630336 224.831472,175.756048 C224.002464,175.87096 223.267632,176.134048 222.748368,176.542288 C222.226944,176.951824 221.922816,177.465472 221.779824,177.905248 C221.632512,178.350208 221.658864,178.725616 221.70768,178.964512 C221.756064,179.207296 221.82432,179.323072 221.8092,179.329552 C221.8092,179.329552 221.727552,179.220256 221.664048,178.975312 C221.598816,178.733392 221.55648,178.345024 221.696448,177.87976 C221.831664,177.419248 222.134496,176.880976 222.669744,176.443792 C223.20672,176.006608 223.962288,175.726672 224.807712,175.5988 C225.655296,175.46056 226.5936,175.480432 227.581152,175.414336 C228.557904,175.343488 229.647408,175.172416 230.513568,174.480784 C231.39096,173.813776 231.95472,172.748032 232.376784,171.620944 C232.806192,170.486944 233.121984,169.256176 233.6568,168.059968 C234.158352,166.864192 235.018032,165.778144 236.150736,165.23296 C237.267888,164.678272 238.444656,164.468752 239.460288,164.026816 C239.96616,163.807792 240.436176,163.535632 240.807696,163.17448 L241.08288,162.904048 C241.168416,162.80944 241.239264,162.702736 241.317888,162.603808 C241.481616,162.410704 241.595232,162.186496 241.721376,161.976544 C242.194416,161.112976 242.435904,160.2088 242.674368,159.3988 C243.109392,157.767136 243.578544,156.43096 244.21488,155.695696 C244.354416,155.5 244.51512,155.359168 244.65336,155.23648 C244.722048,155.175568 244.782096,155.114656 244.84344,155.067568 C244.907808,155.02696 244.967424,154.989376 245.021856,154.954816 C245.235264,154.821328 245.348016,154.755232 245.352105,154.762144" id="Fill-106" fill="#FAF9F6" fill-rule="nonzero"></path>
                    <path d="M245.466384,141.999122 C245.47416,141.998704 245.4828,142.12528 245.490576,142.368496 C245.494464,142.61128 245.465088,142.971568 245.361408,143.423872 C245.145408,144.322864 244.488768,145.55752 243.258864,146.674672 C242.651472,147.23584 241.917936,147.778432 241.079424,148.267024 C240.245232,148.761664 239.325504,149.232544 238.38288,149.7652 C237.443712,150.299584 236.475168,150.903088 235.624128,151.705312 C234.761856,152.4976 234.116016,153.53872 233.534544,154.641616 C232.947024,155.742352 232.426896,156.863392 231.722736,157.833664 C231.373248,158.318368 230.9784,158.761168 230.541648,159.140032 C230.101872,159.516304 229.623216,159.82216 229.136784,160.075744 C228.160464,160.58248 227.166,160.89568 226.244544,161.184256 C225.32136,161.469808 224.45952,161.722528 223.706544,162.03832 C222.952272,162.34936 222.298656,162.70144 221.770752,163.07512 C221.242416,163.4488 220.840656,163.841056 220.555536,164.195728 C219.980112,164.908096 219.859152,165.424336 219.826752,165.407056 C219.819408,165.404896 219.860448,165.2848 219.946416,165.057136 C220.04664,164.836384 220.200864,164.507632 220.486848,164.141728 C220.766352,163.772368 221.166816,163.363264 221.697312,162.973168 C222.227376,162.583072 222.885744,162.216304 223.6452,161.891872 C224.404656,161.562688 225.269952,161.299168 226.188384,161.006272 C227.10552,160.710784 228.08832,160.392832 229.040448,159.892144 C229.514784,159.641584 229.97832,159.341776 230.401248,158.977168 C230.822448,158.609104 231.203472,158.179696 231.543888,157.704928 C232.229904,156.755824 232.74528,155.643856 233.335824,154.535776 C233.919456,153.428128 234.584304,152.356768 235.472928,151.54504 C236.347728,150.725104 237.333552,150.11728 238.28136,149.584624 C239.232192,149.054128 240.153648,148.59016 240.984816,148.105888 C241.81944,147.62896 242.546064,147.102784 243.151728,146.5576 C244.376016,145.471552 245.038272,144.277072 245.277168,143.401408 C245.509152,142.517104 245.431824,141.996976 245.466384,141.999122" id="Fill-107" fill="#FAF9F6" fill-rule="nonzero"></path>
                    <path d="M219.231888,152.357285 C219.228,152.358496 219.215472,152.330848 219.193872,152.273824 C219.175296,152.215936 219.135552,152.132992 219.110496,152.016352 C219.057792,151.785664 219.024528,151.421056 219.153696,150.980848 C219.393888,150.101296 220.349472,149.00704 221.88912,148.4584 C222.655488,148.195312 223.524672,148.036336 224.430144,147.7996 C225.325248,147.558112 226.300704,147.220288 227.029488,146.471632 C227.391072,146.102272 227.696928,145.662496 227.950944,145.179088 C228.199344,144.69136 228.40368,144.167776 228.596784,143.627344 C228.983856,142.549936 229.30872,141.378784 229.966224,140.314768 C230.618976,139.242112 231.682992,138.496912 232.78416,138.123664 C233.882736,137.720176 234.989952,137.541328 236.01768,137.30416 C237.048432,137.079952 238.011792,136.789648 238.829568,136.346848 C239.635248,135.888928 240.277632,135.279376 240.732096,134.633104 C241.664352,133.337104 241.908,132.01 241.941264,131.133472 C241.961568,130.242256 241.819872,129.75712 241.849248,129.7528 C241.849248,129.7528 242.022048,130.229728 242.028528,131.1352 C242.022048,132.02512 241.8,133.384624 240.861696,134.72512 C240.403776,135.393424 239.750592,136.028896 238.920288,136.509712 C238.082208,136.97368 237.098544,137.275216 236.063904,137.506336 C235.030992,137.749984 233.929824,137.933584 232.861056,138.33016 C231.785376,138.700384 230.78616,139.40584 230.156736,140.434 C229.522128,141.459136 229.195968,142.616896 228.804144,143.701216 C228.608448,144.245536 228.398928,144.778192 228.141888,145.278448 C227.878368,145.77568 227.55696,146.2336 227.175504,146.618944 C226.401792,147.403888 225.382704,147.743872 224.477232,147.979744 C223.5588,148.211728 222.6948,148.360336 221.939232,148.6096 C220.441488,149.120656 219.490656,150.169552 219.237504,151.006768 C219.10056,151.426672 219.117408,151.779184 219.15456,152.007712 C219.202944,152.234944 219.241824,152.354176 219.231888,152.357285" id="Fill-108" fill="#FAF9F6" fill-rule="nonzero"></path>
                    <path d="M243.865824,175.677844 C243.8736,175.676992 243.883536,175.769872 243.896064,175.94872 C243.906,176.127136 243.892176,176.394544 243.816144,176.72848 C243.66408,177.394192 243.15,178.304848 242.183616,179.062576 C241.707552,179.446192 241.131696,179.798272 240.470304,180.079504 C239.811072,180.362464 239.081424,180.58624 238.319376,180.823408 C237.558624,181.061008 236.759856,181.30984 235.98312,181.676608 C235.2012,182.034736 234.478896,182.559184 233.856816,183.227488 C233.226528,183.887584 232.683072,184.609024 232.079568,185.24536 C231.478656,185.886016 230.796096,186.413488 230.088912,186.803584 C228.6672,187.588528 227.193216,187.858096 225.98016,187.871488 C224.758464,187.885312 223.788624,187.628272 223.15272,187.401904 C222.831744,187.290016 222.59328,187.178128 222.435168,187.09432 C222.27576,187.0144 222.19368,186.969904 222.196932,186.96256 C222.200592,186.955648 222.289152,186.987184 222.454176,187.05328 C222.61704,187.123264 222.85896,187.221328 223.1808,187.31896 C223.818432,187.51768 224.778336,187.745776 225.977568,187.712512 C227.167728,187.678816 228.607152,187.398016 229.987392,186.622576 C230.676,186.235936 231.33264,185.723584 231.919296,185.09416 C232.50984,184.467328 233.051568,183.74632 233.693952,183.071968 C234.326832,182.390272 235.088016,181.839472 235.888512,181.477456 C236.686416,181.104208 237.495552,180.857968 238.258896,180.625552 C239.02224,180.393568 239.748432,180.177568 240.39816,179.908 C241.046592,179.640592 241.61424,179.304064 242.084688,178.937728 C243.040704,178.212832 243.556944,177.346672 243.731904,176.706448 C243.902112,176.059744 243.83472,175.676992 243.865824,175.677844" id="Fill-109" fill="#FAF9F6" fill-rule="nonzero"></path>
                    <path d="M106.854,135.728656 L89.57832,224.546992 L191.557536,224.044144 C196.134144,224.021248 200.190192,219.957856 201.662448,213.920224 L219.745536,139.77304 C220.863552,135.189952 218.410656,130.422832 214.936944,130.426284 L111.721776,130.53472 C109.442976,130.537312 107.45016,132.663616 106.854,135.728656" id="Fill-116" fill="#E0565F" fill-rule="nonzero"></path>
                    <path d="M193.90416,221.614144 C182.8428,221.614144 181.776192,208.953952 181.775328,208.94488 L172.036752,130.471216 L214.936944,130.426288 C214.93824,130.426288 214.939104,130.426288 214.940832,130.426288 C217.836096,130.426288 220.021152,133.741024 220.018996,137.49856 C220.018128,138.246784 219.931296,139.012288 219.745536,139.77304 L201.662448,213.920224 C200.903424,217.033216 199.45752,219.621328 197.607264,221.4016 C197.700576,221.253856 197.729088,221.16616 197.729088,221.16616 C196.337616,221.474176 195.064944,221.614144 193.90416,221.614144" id="Fill-118" fill="#43A2CA" fill-rule="nonzero"></path>
                    <path d="M181.775328,208.94488 L170.97792,121.936624 C170.535552,118.37176 167.695584,115.712368 164.3424,115.723102 L140.666208,115.800496 C138.913584,115.806544 137.233536,116.551312 135.988944,117.874528 L124.746576,129.825376 L58.898112,130.169248 C54.874464,130.189984 51.783072,133.997632 52.31616,138.275728 L62.341152,218.693392 C62.784816,222.253504 65.6196,224.90944 68.968032,224.902984 L183.727104,224.67616 C196.508688,224.940976 197.729088,221.16616 197.729088,221.16616 C183.080832,224.412208 181.776624,208.954816 181.775328,208.94488" id="Fill-119" fill="#7BCCC4" fill-rule="nonzero"></path>
                    <path d="M128.421168,195.688096 L115.655568,184.20424 L119.525856,180.047104 L132.291888,191.531392 L128.421168,195.688096 M111.377904,180.355984 L98.612304,168.872128 L102.482592,164.714992 L115.248192,176.198848 L111.377904,180.355984" id="Fill-120" fill="#FFFFFF" fill-rule="nonzero"></path>
                    <polyline id="Fill-121" fill="#FFFFFF" fill-rule="nonzero" points="104.104752 196.609984 99.82752 192.761728 126.799008 163.793104 131.076672 167.64136 104.104752 196.609984"></polyline>
                    <g id="Group-6" transform="translate(187.000000, 83.000000)">
                        <g id="Group-3" transform="translate(10.000000, 7.000000)" fill="#7BCCC4" fill-rule="nonzero">
                            <path d="M3.54964627,11.7850028 C3.27403027,11.6670668 3.07574227,11.3983628 3.06148627,11.0782508 L2.88911827,7.0679948 C2.87788627,6.8157068 2.98588627,6.5729228 3.18028627,6.4117868 C3.37468627,6.2510828 3.63388627,6.1906028 3.87926227,6.2489228 C4.52380627,6.4009868 5.23487827,6.2605868 5.82974227,5.8635788 C6.37751827,5.4981068 6.74515027,4.9598348 6.83846227,4.3865708 C6.93177427,3.8154668 6.75465427,3.1830188 6.35375827,2.6516588 C5.92348627,2.0831468 5.28844627,1.6995308 4.65124627,1.6265228 C3.35049427,1.4770508 1.94606227,2.4736748 1.58447827,3.8029388 C1.46783827,4.2327788 1.02503827,4.4863628 0.595630272,4.3697228 C0.158878272,4.2496268 -0.0877937284,3.8098508 0.0288462716,3.3804428 C0.596494272,1.2904268 2.75303827,-0.214661201 4.83614227,0.0250987988 C5.91614227,0.149514799 6.93955027,0.752586799 7.63939027,1.6796588 C8.30553427,2.5609388 8.59324627,3.6418028 8.42951827,4.6462028 C8.26449427,5.6592428 7.64327827,6.5914988 6.72484627,7.2045068 C6.06129427,7.6473068 5.29967827,7.8913868 4.53849427,7.9181708 L4.67241427,11.0095628 C4.69142227,11.4540908 4.34625427,11.8303628 3.90172627,11.8489388 C3.77687827,11.8545548 3.65721427,11.8312268 3.54964627,11.7850028" id="Fill-122"></path>
                            <path d="M4.73159827,13.4235788 C4.75622227,13.7868908 4.48233427,14.1018188 4.11902227,14.1268748 C3.75571027,14.1519308 3.44035027,13.8776108 3.41572627,13.5138668 C3.39067027,13.1509868 3.66499027,12.8360588 4.02830227,12.8110028 C4.39204627,12.7859468 4.70654227,13.0602668 4.73159827,13.4235788" id="Fill-123"></path>
                        </g>
                        <circle id="Oval" stroke="#979797" stroke-width="0.5" cx="14.5" cy="14.5" r="14.5"></circle>
                    </g>
                </g>
                <path d="M122.524368,44.391296 L174.56352,44.391296 C174.56352,44.391296 169.758816,21.394208 148.149744,21.394208 C128.9292,21.394208 122.524368,44.391296 122.524368,44.391296" id="Fill-27" fill="#43A2CA" fill-rule="nonzero"></path>
                <polygon id="Fill-28" fill="#43A2CA" fill-rule="nonzero" points="147.986016 21.406304 149.101872 21.406304 149.101872 2.405648 147.986016 2.405648"></polygon>
            </g>
        </g>
    </g>
</svg>